<?xml version="1.0" encoding="UTF-8"?>
<svg id="Layer_1" data-name="Layer 1" xmlns="http://www.w3.org/2000/svg" version="1.1" viewBox="0 0 1090.83 620.27">
  <defs>
    <style>
      .cls-1 {
        fill: #000;
      }

      .cls-1, .cls-2 {
        stroke-width: 0px;
      }

      .cls-2 {
        fill: #fff;
      }
    </style>
  </defs>
  <polygon class="cls-2" points="650.36 298.31 642.86 283.12 635.37 298.31 618.62 300.74 630.74 312.56 627.88 329.25 642.86 321.37 657.85 329.25 654.99 312.56 667.11 300.74 650.36 298.31"/>
  <polygon class="cls-2" points="552.91 298.31 545.42 283.12 537.92 298.31 521.17 300.74 533.29 312.56 530.43 329.25 545.42 321.37 560.4 329.25 557.54 312.56 569.67 300.74 552.91 298.31"/>
  <path class="cls-2" d="M861.11,424.87v-65.23h-187.11v247.04h187.11v-65.23h-105.39v-25.21h105.39v-66.17h-105.39v-25.21h105.39Z"/>
  <path class="cls-2" d="M689.46,13.59h-189.01v242.83h80.78v-69.69h108.23V13.59ZM607.73,128.19h-25.56v-57.3h25.56v57.3Z"/>
  <path class="cls-2" d="M710.91,13.59v242.83h200.68V13.59h-78.88v177.79h-42.91V13.59h-78.89Z"/>
  <path class="cls-2" d="M569.55,566.66v40.02h78.88v-247.04h-78.88v81.61h-19.25v-41.6h-31.24v-40.02h-78.88v247.04h78.88v-81.61h19.56v41.59h30.92Z"/>
  <path class="cls-2" d="M1077.24,606.68v-86.65h-26.19v-23.32h-24.3v-27.1h24.3v-23.32h26.19v-86.65h-78.89v30.25h-23.35v34.03h-11.67v-64.28h-78.88v247.04h78.88v-64.28h11.67v34.03h23.35v30.25h78.89Z"/>
  <path class="cls-2" d="M1014.77,256.42V13.59h-77.94v242.83h77.94Z"/>
  <polygon class="cls-2" points="747.81 298.31 740.31 283.12 732.82 298.31 716.06 300.74 728.19 312.56 725.33 329.25 740.31 321.37 755.3 329.25 752.44 312.56 764.56 300.74 747.81 298.31"/>
  <path class="cls-2" d="M187.76,524.13h18.62v-164.49h-78.88v180.87h-35.02v-180.87H13.59v164.49h18.62v44.74h27.13v37.81h101.29v-37.81h27.13v-44.74Z"/>
  <path class="cls-2" d="M475.21,13.59h-189.01v242.83h80.78v-65.05h27.45v65.05h80.78V13.59ZM336.69,55.71h25.56v22.92h-25.56v-22.92ZM408.95,139.65h-10.73v-13.32h-35.03v13.32h-10.73v-40.89h14.52v-14.56h27.45v14.56h14.52v40.89ZM424.41,78.63h-25.24v-22.92h25.24v22.92Z"/>
  <polygon class="cls-2" points="358.01 298.31 350.52 283.12 343.02 298.31 326.27 300.74 338.39 312.56 335.53 329.25 350.52 321.37 365.51 329.25 362.64 312.56 374.77 300.74 358.01 298.31"/>
  <path class="cls-2" d="M416.83,424.87v-65.23h-187.11v247.04h187.11v-65.23h-105.39v-25.21h105.39v-66.17h-105.39v-25.21h105.39Z"/>
  <polygon class="cls-2" points="845.26 298.31 837.76 283.12 830.27 298.31 813.51 300.74 825.64 312.56 822.78 329.25 837.76 321.37 852.75 329.25 849.89 312.56 862.01 300.74 845.26 298.31"/>
  <polygon class="cls-2" points="455.46 298.31 447.97 283.12 440.47 298.31 423.72 300.74 435.84 312.56 432.98 329.25 447.97 321.37 462.95 329.25 460.09 312.56 472.22 300.74 455.46 298.31"/>
  <polygon class="cls-2" points="260.56 298.31 253.07 283.12 245.58 298.31 228.82 300.74 240.94 312.56 238.08 329.25 253.07 321.37 268.06 329.25 265.19 312.56 277.32 300.74 260.56 298.31"/>
  <path class="cls-2" d="M211.43,77.7h53.64V13.59H76.06v64.12h53.64v178.72h81.72V77.7Z"/>
  <g>
    <path class="cls-1" d="M362.25,55.71h-25.56v22.92h25.56v-22.92Z"/>
    <path class="cls-1" d="M398.22,139.65h10.73v-40.89h-14.51v-14.56h-27.45v14.56h-14.51v40.89h10.73v-13.32h35.03v13.32Z"/>
    <path class="cls-1" d="M424.41,55.71h-25.24v22.92h25.24v-22.92Z"/>
    <path class="cls-1" d="M1090.83,459.88v-111.8l-165.66-26.82,103.18-56.81V0h-203.52l-21.45,37.43V0H62.48v83.62l53.64,49.96v130.4l83.35,51.82L0,348.08v189.64h18.62v44.74h27.13v37.81h119.94l50.44-43.67v43.67h315.48l3.17-40.02h19.06c.86,10.25,1.55,19.01,2.16,27.42l.91,12.61h420.01v-12.49l16.98,12.49h96.93v-108.92l-26.19-12.14v-39.33h26.19ZM936.83,13.59h77.94v242.83h-77.94V13.59ZM710.91,13.59h78.89v177.79h42.91V13.59h78.88v242.83h-200.68V13.59ZM755.3,329.25l-14.99-7.88-14.99,7.88,2.86-16.69-12.12-11.82,16.76-2.43,7.49-15.18,7.49,15.18,16.76,2.43-12.12,11.82,2.86,16.69ZM500.45,13.59h189.01v173.14h-108.23v69.69h-80.78V13.59ZM560.4,329.25l-14.99-7.88-14.99,7.88,2.86-16.69-12.12-11.82,16.76-2.43,7.49-15.18,7.49,15.18,16.76,2.43-12.12,11.82,2.86,16.69ZM286.21,13.59h189v242.83h-80.78v-65.05h-27.45v65.05h-80.78V13.59ZM365.51,329.25l-14.99-7.88-14.99,7.88,2.86-16.69-12.12-11.82,16.76-2.43,7.49-15.18,7.49,15.18,16.76,2.43-12.12,11.82,2.86,16.69ZM206.38,524.13h-18.62v44.74h-27.13v37.81H59.34v-37.81h-27.13v-44.74H13.59v-164.48h78.89v180.87h35.02v-180.87h78.89v164.48ZM211.43,77.7v178.72h-81.72V77.7h-53.64V13.59h189v64.12h-53.64ZM245.58,298.31l7.49-15.18,7.49,15.18,16.76,2.43-12.12,11.82,2.86,16.69-14.99-7.88-14.99,7.88,2.86-16.69-12.12-11.82,16.76-2.43ZM416.83,424.87h-105.39v25.21h105.39v66.17h-105.39v25.21h105.39v65.23h-187.11v-247.04h187.11v65.23ZM423.72,300.74l16.76-2.43,7.49-15.18,7.49,15.18,16.76,2.43-12.12,11.82,2.86,16.69-14.99-7.88-14.99,7.88,2.86-16.69-12.12-11.82ZM648.43,606.68h-78.88v-40.02h-30.92v-41.59h-19.56v81.61h-78.88v-247.04h78.88v40.02h31.24v41.6h19.25v-81.61h78.88v247.04ZM657.85,329.25l-14.99-7.88-14.99,7.88,2.86-16.69-12.12-11.82,16.76-2.43,7.49-15.18,7.49,15.18,16.76,2.43-12.12,11.82,2.86,16.69ZM861.11,424.87h-105.39v25.21h105.39v66.17h-105.39v25.21h105.39v65.23h-187.11v-247.04h187.11v65.23ZM849.89,312.56l2.86,16.69-14.99-7.88-14.99,7.88,2.86-16.69-12.12-11.82,16.76-2.43,7.49-15.18,7.49,15.18,16.76,2.43-12.12,11.82ZM1051.06,496.71v23.32h26.19v86.65h-78.89v-30.25h-23.35v-34.03h-11.67v64.28h-78.89v-247.04h78.89v64.28h11.67v-34.03h23.35v-30.25h78.89v86.65h-26.19v23.32h-24.3v27.1h24.3Z"/>
    <path class="cls-1" d="M607.73,70.89h-25.56v57.3h25.56v-57.3Z"/>
  </g>
</svg>
