<?xml version="1.0" encoding="UTF-8"?>
<svg xmlns="http://www.w3.org/2000/svg" version="1.1" xmlns:xlink="http://www.w3.org/1999/xlink" viewBox="0 0 1090.8 620.3">
  <defs>
    <style>
      .cls-1 {
        fill: url(#radial-gradient);
        mix-blend-mode: multiply;
        opacity: .4;
      }

      .cls-1, .cls-2, .cls-3, .cls-4, .cls-5, .cls-6, .cls-7, .cls-8, .cls-9, .cls-10, .cls-11, .cls-12, .cls-13, .cls-14, .cls-15, .cls-16, .cls-17, .cls-18, .cls-19, .cls-20, .cls-21, .cls-22, .cls-23, .cls-24, .cls-25, .cls-26 {
        stroke-width: 0px;
      }

      .cls-2 {
        fill: url(#linear-gradient);
      }

      .cls-3 {
        fill: #0d4900;
      }

      .cls-4 {
        fill: #117000;
      }

      .cls-5 {
        fill: url(#linear-gradient-6);
      }

      .cls-6 {
        fill: #c61c28;
      }

      .cls-27 {
        isolation: isolate;
      }

      .cls-7 {
        fill: #d39c22;
      }

      .cls-8 {
        fill: #b3b3b3;
      }

      .cls-9 {
        fill: url(#linear-gradient-5);
      }

      .cls-10 {
        fill: #e6e6e6;
      }

      .cls-11 {
        fill: #7a0a1d;
      }

      .cls-12 {
        fill: #00234c;
      }

      .cls-13 {
        fill: #003491;
      }

      .cls-14 {
        fill: #1042b2;
      }

      .cls-15 {
        fill: url(#linear-gradient-2);
      }

      .cls-16 {
        fill: #f7bb26;
      }

      .cls-17 {
        fill: url(#linear-gradient-7);
      }

      .cls-18 {
        fill: url(#linear-gradient-3);
      }

      .cls-19 {
        fill: url(#linear-gradient-9);
      }

      .cls-20 {
        fill: #139600;
      }

      .cls-21 {
        fill: #996304;
      }

      .cls-22 {
        fill: url(#linear-gradient-8);
      }

      .cls-23 {
        fill: #aa1325;
      }

      .cls-24 {
        fill: #fff;
      }

      .cls-25 {
        fill: url(#linear-gradient-10);
      }

      .cls-26 {
        fill: url(#linear-gradient-4);
      }
    </style>
    <radialGradient id="radial-gradient" cx="967.3" cy="166.8" fx="967.3" fy="166.8" r="125.3" gradientTransform="translate(-2660.3 190.4) scale(3.3 .6)" gradientUnits="userSpaceOnUse">
      <stop offset=".2" stop-color="#000"/>
      <stop offset="1" stop-color="#000" stop-opacity="0"/>
    </radialGradient>
    <linearGradient id="linear-gradient" x1="591.3" y1="59.7" x2="591.3" y2="315.9" gradientUnits="userSpaceOnUse">
      <stop offset="0" stop-color="#f9df23"/>
      <stop offset="1" stop-color="#f7bb26"/>
    </linearGradient>
    <linearGradient id="linear-gradient-2" x1="392.7" y1="59.7" x2="392.7" y2="315.9" gradientUnits="userSpaceOnUse">
      <stop offset="0" stop-color="#12bc00"/>
      <stop offset="1" stop-color="#139600"/>
    </linearGradient>
    <linearGradient id="linear-gradient-3" x1="937.1" y1="59.7" x2="937.1" y2="315.9" xlink:href="#linear-gradient"/>
    <linearGradient id="linear-gradient-4" x1="218.9" y1="59.7" x2="218.9" y2="315.9" xlink:href="#linear-gradient"/>
    <linearGradient id="linear-gradient-5" x1="791.1" y1="59.7" x2="791.1" y2="315.9" xlink:href="#linear-gradient"/>
    <linearGradient id="linear-gradient-6" x1="545" y1="546.2" x2="545" y2="270.4" gradientUnits="userSpaceOnUse">
      <stop offset="0" stop-color="#0071bc"/>
      <stop offset="1" stop-color="#1042b2"/>
    </linearGradient>
    <linearGradient id="linear-gradient-7" x1="751.3" y1="546.2" x2="751.3" y2="270.4" gradientUnits="userSpaceOnUse">
      <stop offset="0" stop-color="#e02b41"/>
      <stop offset="1" stop-color="#aa1325"/>
    </linearGradient>
    <linearGradient id="linear-gradient-8" x1="944.3" y1="546.2" x2="944.3" y2="270.4" xlink:href="#linear-gradient-7"/>
    <linearGradient id="linear-gradient-9" x1="340.8" y1="546.2" x2="340.8" y2="270.4" xlink:href="#linear-gradient-6"/>
    <linearGradient id="linear-gradient-10" x1="142.6" y1="546.2" x2="142.6" y2="270.4" xlink:href="#linear-gradient-6"/>
  </defs>
  <g class="cls-27">
    <g id="Layer_1" data-name="Layer 1">
      <g>
        <path class="cls-24" d="M1058.2,440.6l32.7-131.7-79.3-17.8,18.6-4.7-57.6-263H119.5l-20.8,94.9,42.3,28-26.6,137.2L1.2,308.9l49.1,198h16.3l8.6,36.1h23.3l6.7,29.5h122.9l18.6-18.3,2.7,18.3h776l28.3-114.1-20.9-11.3,1.5-6.5h23.8Z"/>
        <g>
          <path class="cls-1" d="M1046.6,425.7l26.2-105.6-98.7-22.2h-49.8l88.4-22.5-51.9-237.1h-175.6l-14,18.5-2.1-18.5H131.5l-16,73.2,42.1,27.9-26.3,135.8,79.4,22.8h-92.6l-98.7,22.2,42.6,171.8h16.4l8.6,36.1h23.5l6.7,29.5h104.9l35.2-34.7,5.1,34.7h275l2.2-31.2h11.2l2,31.2h364l1.7-8.9,10.6,8.9h84.7l22.7-91.5-20.8-11.3,6.9-29.1h23.9ZM550.6,298l-.3,31.8h-10.3l-.3-31.8h10.9ZM585.9,298l9.4-31.3-.4-24.4h66.3l3.6,55.7h-78.8ZM293.9,279l41.1,18.9h-43.6l2.5-18.9Z"/>
          <g>
            <polygon class="cls-21" points="131.3 275.1 210.7 298 291.4 298 293.9 279 335 298 585.9 298 595.3 266.6 594.9 242.3 661.1 242.3 664.7 298 924.2 298 1012.5 275.5 960.6 38.3 785.1 38.3 771.1 56.8 769 38.3 131.5 38.3 115.5 111.5 157.6 139.4 131.3 275.1"/>
            <polygon class="cls-3" points="494.7 38.3 316.4 38.3 285.7 275.2 335 298 504.3 298 486.7 264.6 494.7 38.3"/>
            <g>
              <g>
                <g>
                  <path class="cls-16" d="M669.6,53.2h-162.1l-4.2,200.2-.2,11.1h77.2l-.2-11.1-.9-54.4h100.2l-9.8-145.8ZM579.2,147.2l-.8-48.2h22.5l1.4,48.2h-23Z"/>
                  <polygon class="cls-16" points="132.2 104.7 179.5 104.7 150.7 253.4 148.5 264.6 226.7 264.6 228.4 253.4 251.6 104.7 298.9 104.7 305.6 53.2 143.5 53.2 132.2 104.7"/>
                  <polygon class="cls-16" points="860.1 53.2 792.5 53.2 812.6 203.3 772.8 203.3 755.7 53.2 688 53.2 703.4 253.4 704.3 264.6 896.2 264.6 894.3 253.4 860.1 53.2"/>
                  <polygon class="cls-16" points="992.5 253.4 948.6 53.2 881.8 53.2 918.3 253.4 920.3 264.6 994.9 264.6 992.5 253.4"/>
                </g>
                <path class="cls-20" d="M323.7,53.2l-24.2,200.2-1.3,11.1h77.2l.9-11.1,4.2-50.1h25.5l-3.5,50.1-.8,11.1h77.2l.4-11.1,6.6-200.2h-162.1ZM418.3,86.7h22.1l-1.1,18.7h-22.3l1.3-18.7ZM363.8,86.7h22.3l-1.6,18.7h-22.6l1.8-18.7ZM381.9,145.6l-1,11.6h-9.7l3.1-35h12.9l1-12.1h24.3l-.9,12.1h12.9l-2.2,35h-9.7l.8-11.6h-31.5Z"/>
              </g>
              <path class="cls-2" d="M579.2,199.1h100.2l-9.8-145.8h-162.1l-4.2,200.2h76.8l-.9-54.4ZM578.4,99.1h22.5l1.4,48.2h-23l-.8-48.2Z"/>
              <path class="cls-15" d="M380.5,203.3h25.5l-3.5,50.1h76.8l6.6-200.2h-162.1l-24.2,200.2h76.8l4.2-50.1ZM418.3,86.7h22.1l-1.1,18.7h-22.3l1.3-18.7ZM388.3,110.1h24.3l-.9,12.1h12.9l-2.2,35h-9.7l.8-11.6h-31.5l-1,11.6h-9.7l3.1-35h12.9l1-12.1ZM363.8,86.7h22.3l-1.6,18.7h-22.6l1.8-18.7Z"/>
              <polygon class="cls-18" points="948.6 53.2 881.8 53.2 918.3 253.4 992.5 253.4 948.6 53.2"/>
              <polygon class="cls-26" points="251.6 104.7 298.9 104.7 305.6 53.2 143.5 53.2 132.2 104.7 179.5 104.7 150.7 253.4 228.4 253.4 251.6 104.7"/>
              <polygon class="cls-9" points="860.1 53.2 792.5 53.2 812.6 203.3 772.8 203.3 755.7 53.2 688 53.2 703.4 253.4 894.3 253.4 860.1 53.2"/>
              <polygon class="cls-20" points="299.5 253.4 298.2 264.6 375.4 264.6 376.4 253.4 299.5 253.4"/>
              <polygon class="cls-16" points="503.3 253.4 503.1 264.6 580.3 264.6 580.1 253.4 503.3 253.4"/>
              <polygon class="cls-20" points="402.5 253.4 401.7 264.6 478.9 264.6 479.3 253.4 402.5 253.4"/>
              <polygon class="cls-16" points="918.3 253.4 920.3 264.6 994.9 264.6 992.5 253.4 918.3 253.4"/>
              <polygon class="cls-16" points="150.7 253.4 148.5 264.6 226.7 264.6 228.4 253.4 150.7 253.4"/>
              <polygon class="cls-16" points="703.4 253.4 704.3 264.6 896.2 264.6 894.3 253.4 703.4 253.4"/>
              <g>
                <polygon class="cls-7" points="148.5 264.6 212.8 283 278.3 283 226.7 264.6 148.5 264.6"/>
                <polygon class="cls-4" points="401.7 264.6 425 283 489.8 283 478.9 264.6 401.7 264.6"/>
                <polygon class="cls-4" points="298.2 264.6 338.3 283 403 283 375.4 264.6 298.2 264.6"/>
                <polygon class="cls-7" points="510 283 574.8 283 580.3 264.6 503.1 264.6 510 283"/>
                <polygon class="cls-7" points="704.3 264.6 678.7 283 839.6 283 896.2 264.6 704.3 264.6"/>
                <polygon class="cls-7" points="920.3 264.6 859.8 283 922.3 283 994.9 264.6 920.3 264.6"/>
              </g>
            </g>
          </g>
          <g>
            <g>
              <rect class="cls-11" x="645.6" y="557.6" width="180.3" height="0"/>
              <polygon class="cls-12" points="1046.6 425.7 1072.8 320.1 974 298 789.6 298 625.4 298 550.6 298 550.3 329.7 540 329.7 539.7 298 118.1 298 19.3 320.1 62 492 78.4 492 87 528.1 110.5 528.1 117.2 557.6 222.1 557.6 257.3 522.9 262.4 557.6 537.4 557.6 539.5 526.4 550.8 526.4 552.8 557.6 645.6 557.6 826 557.6 916.8 557.6 918.5 548.7 929.1 557.6 1013.9 557.6 1036.6 466.1 1015.8 454.8 1022.7 425.7 1046.6 425.7"/>
              <polygon class="cls-11" points="1046.6 425.7 1072.8 320.1 974 298 789.6 298 625.4 298 625.3 298 656.3 331.4 645.6 557.6 826 557.6 916.8 557.6 918.5 548.7 929.1 557.6 1013.9 557.6 1036.6 466.1 1015.8 454.8 1022.7 425.7 1046.6 425.7"/>
            </g>
            <g>
              <g>
                <polygon class="cls-6" points="741.2 391.7 839.1 391.7 846.3 342.5 847.9 331.4 847.9 331.3 669 331.3 669 331.4 668.3 342.5 656.3 542.7 816.8 542.7 824.4 491.2 731.5 491.2 733.5 470.6 827.4 470.6 835.8 414.1 739 414.1 741.2 391.7"/>
                <polygon class="cls-14" points="339.8 491.2 337.5 470.6 431.4 470.6 428.1 414.1 331.4 414.1 328.9 391.7 426.7 391.7 423.8 342.5 423.1 331.4 423.1 331.3 244.2 331.3 244.2 331.4 245.8 342.5 275.3 542.7 435.8 542.7 432.7 491.2 339.8 491.2"/>
                <polygon class="cls-14" points="223.6 342.5 221.9 331.4 221.9 331.3 146.4 331.3 146.4 331.4 148.6 342.5 177.4 490.5 146.5 490.5 115.3 342.5 113 331.4 112.9 331.3 37.5 331.3 37.5 331.4 40.3 342.5 73.6 477.1 90.2 477.1 98.8 513.2 122.5 513.2 129.1 542.7 216 542.7 210.7 513.2 234.4 513.2 228.4 477.1 244.9 477.1 223.6 342.5"/>
                <polygon class="cls-14" points="569.1 331.4 569 342.5 568.3 406.3 550.6 406.3 550.6 368.8 521.3 368.8 521 342.5 520.9 331.4 520.9 331.3 445.4 331.3 445.4 331.4 446 342.5 455.8 542.7 523.5 542.7 522.7 477.8 540 477.8 540.1 511.5 567.1 511.5 566.7 542.7 634.4 542.7 644 342.5 644.6 331.4 644.6 331.3 569.1 331.3 569.1 331.4"/>
                <polygon class="cls-6" points="979.2 331.3 979.2 331.4 976.8 342.5 973.2 359.8 951.2 359.8 944.9 390.9 934.1 390.9 943.5 342.5 945.7 331.4 945.7 331.3 870.3 331.3 870.3 331.4 868.5 342.5 836.9 542.7 904.5 542.7 914.4 492 924.7 492 919.2 519.2 939.5 519.2 934.6 542.7 1002.2 542.7 1019.3 473.7 996 473.7 1000.6 454.2 978.8 454.2 983.9 431.1 1006.1 431.1 1010.8 410.8 1034.9 410.8 1051.8 342.5 1054.6 331.4 1054.6 331.3 979.2 331.3"/>
              </g>
              <polygon class="cls-5" points="568.3 406.3 550.6 406.3 550.6 368.8 521.3 368.8 521 342.5 446 342.5 455.8 542.7 523.5 542.7 522.7 477.8 540 477.8 540.1 511.5 567.1 511.5 566.7 542.7 634.4 542.7 644 342.5 569 342.5 568.3 406.3"/>
              <polygon class="cls-17" points="656.3 542.7 816.8 542.7 824.4 491.2 731.5 491.2 733.5 470.6 827.4 470.6 835.8 414.1 739 414.1 741.2 391.7 839.1 391.7 846.3 342.5 668.3 342.5 656.3 542.7"/>
              <polygon class="cls-22" points="973.2 359.8 951.2 359.8 944.9 390.9 934.1 390.9 943.5 342.5 868.5 342.5 836.9 542.7 904.5 542.7 914.4 492 924.7 492 919.2 519.2 939.5 519.2 934.6 542.7 1002.2 542.7 1019.3 473.7 996 473.7 1000.6 454.2 978.8 454.2 983.9 431.1 1006.1 431.1 1010.8 410.8 1034.9 410.8 1051.8 342.5 976.8 342.5 973.2 359.8"/>
              <polygon class="cls-19" points="275.3 542.7 435.8 542.7 432.7 491.2 339.8 491.2 337.5 470.6 431.4 470.6 428.1 414.1 331.4 414.1 328.9 391.7 426.7 391.7 423.8 342.5 245.8 342.5 275.3 542.7"/>
              <polygon class="cls-25" points="177.4 490.5 146.5 490.5 115.3 342.5 40.3 342.5 73.6 477.1 90.2 477.1 98.8 513.2 122.5 513.2 129.1 542.7 216 542.7 210.7 513.2 234.4 513.2 228.4 477.1 244.9 477.1 223.6 342.5 148.6 342.5 177.4 490.5"/>
              <g>
                <polygon class="cls-6" points="644.6 331.3 569.1 331.3 569.1 331.4 644.6 331.4 644.6 331.3"/>
                <polygon class="cls-6" points="520.9 331.3 445.4 331.3 445.4 331.4 520.9 331.4 520.9 331.3"/>
                <polygon class="cls-6" points="847.9 331.3 669 331.3 669 331.4 847.9 331.4 847.9 331.3"/>
                <polygon class="cls-6" points="1054.6 331.3 979.2 331.3 979.2 331.4 1054.6 331.4 1054.6 331.3"/>
                <polygon class="cls-6" points="945.7 331.3 870.3 331.3 870.3 331.4 945.7 331.4 945.7 331.3"/>
                <polygon class="cls-6" points="423.1 331.3 244.2 331.3 244.2 331.4 423.1 331.4 423.1 331.3"/>
                <polygon class="cls-6" points="112.9 331.3 37.5 331.3 37.5 331.4 113 331.4 112.9 331.3"/>
                <polygon class="cls-6" points="221.9 331.3 146.4 331.3 146.4 331.4 221.9 331.4 221.9 331.3"/>
                <polygon class="cls-14" points="520.9 331.4 445.4 331.4 446 342.5 521 342.5 520.9 331.4"/>
                <polygon class="cls-14" points="569.1 331.4 569 342.5 644 342.5 644.6 331.4 569.1 331.4"/>
                <polygon class="cls-6" points="669 331.4 668.3 342.5 846.3 342.5 847.9 331.4 669 331.4"/>
                <polygon class="cls-6" points="945.7 331.4 870.3 331.4 868.5 342.5 943.5 342.5 945.7 331.4"/>
                <polygon class="cls-6" points="979.2 331.4 976.8 342.5 1051.8 342.5 1054.6 331.4 979.2 331.4"/>
                <polygon class="cls-14" points="244.2 331.4 245.8 342.5 423.8 342.5 423.1 331.4 244.2 331.4"/>
                <polygon class="cls-14" points="146.4 331.4 148.6 342.5 223.6 342.5 221.9 331.4 146.4 331.4"/>
                <polygon class="cls-14" points="113 331.4 37.5 331.4 40.3 342.5 115.3 342.5 113 331.4"/>
              </g>
              <g>
                <polygon class="cls-13" points="119.7 312.9 37.5 331.3 112.9 331.3 183 312.9 119.7 312.9"/>
                <polygon class="cls-13" points="211.1 312.9 146.4 331.3 221.9 331.3 274.3 312.9 211.1 312.9"/>
                <polygon class="cls-13" points="244.2 331.3 423.1 331.3 443 312.9 293 312.9 244.2 331.3"/>
                <polygon class="cls-13" points="445.4 331.3 520.9 331.3 524.9 312.9 461.7 312.9 445.4 331.3"/>
                <polygon class="cls-13" points="565.4 312.9 569.1 331.3 644.6 331.3 628.6 312.9 565.4 312.9"/>
                <polygon class="cls-23" points="649.1 312.9 669 331.3 847.9 331.3 799.1 312.9 649.1 312.9"/>
                <polygon class="cls-23" points="972.3 312.9 909.1 312.9 979.2 331.3 1054.6 331.3 972.3 312.9"/>
                <polygon class="cls-23" points="817.8 312.9 870.3 331.3 945.7 331.3 881 312.9 817.8 312.9"/>
              </g>
            </g>
          </g>
          <g>
            <polygon class="cls-8" points="346 280.8 346.3 315.6 359.5 315.5 359.6 328.7 383.7 328.5 415.6 325.5 415.5 333.2 440.7 333.5 467.6 328.3 467.7 319.3 478.8 318.4 478.8 311.1 479.9 311.1 480.6 324 505.5 322.6 513.4 320.8 512.9 326.3 526 327.5 524.8 340.6 559.5 344 560.7 330.8 573.8 332.1 574.9 321.1 587 324.3 611.7 326.7 611.8 325.6 623.8 327.9 625.1 333.3 651 339.8 676.9 333.3 675.1 326 708.4 329.4 732.9 329.2 732.8 316 746.1 315.9 745.7 281 732.5 281.1 732.4 267.9 708.4 268.1 671.3 273.4 671.4 283 664.5 283.5 662.4 274.9 635.2 278.7 629.3 280.2 616.5 279 617.8 265.8 590.4 263.1 575 272.3 574.7 275.8 563 281.6 562.9 282.8 530.6 279.7 530.5 280.8 519.6 274.6 519.5 271.2 504.8 261.3 477.2 262.9 477.9 276.1 465.8 276.7 441.1 272.2 416.2 272 416.2 272 383.9 267.3 359.1 267.5 359.2 280.7 346 280.8"/>
            <g>
              <g>
                <polygon class="cls-24" points="695.6 305.5 708.7 305.3 708.9 318.5 722 318.4 721.9 305.2 735.1 305.1 735 291.9 721.8 292 721.7 278.9 708.5 279 708.6 292.2 695.4 292.3 695.6 305.5"/>
                <polygon class="cls-24" points="635 319 647.8 315.8 651 328.6 663.8 325.4 660.6 312.6 673.4 309.4 670.2 296.6 657.4 299.8 654.2 287 641.4 290.2 644.6 303 631.8 306.2 635 319"/>
                <polygon class="cls-24" points="588.9 313.6 602 314.9 603.4 301.8 616.5 303.1 617.8 290 604.7 288.7 606 275.5 592.9 274.2 591.5 287.3 578.4 286 577.1 299.2 590.2 300.5 588.9 313.6"/>
                <polygon class="cls-24" points="536.6 330.9 549.7 332.1 551 319 564.1 320.3 565.3 307.1 552.2 305.9 553.5 292.8 540.3 291.5 539.1 304.6 526 303.4 524.7 316.5 537.8 317.8 536.6 330.9"/>
                <polygon class="cls-24" points="476.9 300.2 490.1 299.4 490.9 312.6 504 311.9 503.3 298.7 516.4 297.9 515.7 284.8 502.5 285.5 501.8 272.4 488.6 273.1 489.4 286.3 476.2 287 476.9 300.2"/>
                <polygon class="cls-24" points="426.5 322.5 439.7 322.6 439.8 309.4 453 309.6 453.1 296.4 440 296.3 440.1 283.1 426.9 282.9 426.8 296.1 413.6 296 413.5 309.2 426.6 309.3 426.5 322.5"/>
                <polygon class="cls-24" points="357 291.5 357.1 304.7 370.3 304.6 370.4 317.8 383.6 317.7 383.4 304.5 396.6 304.4 396.5 291.2 383.3 291.3 383.2 278.1 370 278.2 370.1 291.4 357 291.5"/>
              </g>
              <g>
                <polygon class="cls-10" points="708.7 305.4 721.9 305.2 721.8 292.1 708.6 292.2 708.7 305.4"/>
                <rect class="cls-10" x="646" y="301.2" width="13.2" height="13.2" transform="translate(-55 166.5) rotate(-14)"/>
                <polygon class="cls-10" points="603.4 301.8 604.7 288.7 591.6 287.3 590.2 300.5 603.4 301.8"/>
                <polygon class="cls-10" points="551 319 552.2 305.9 539.1 304.6 537.9 317.8 551 319"/>
                <polygon class="cls-10" points="490.1 299.4 503.3 298.7 502.5 285.5 489.4 286.3 490.1 299.4"/>
                <polygon class="cls-10" points="439.8 309.4 440 296.3 426.8 296.1 426.6 309.3 439.8 309.4"/>
                <polygon class="cls-10" points="370.3 304.6 383.4 304.5 383.3 291.3 370.1 291.4 370.3 304.6"/>
              </g>
            </g>
          </g>
        </g>
      </g>
    </g>
  </g>
</svg>